<?xml version="1.0" standalone="no"?>
<!DOCTYPE svg PUBLIC "-//W3C//DTD SVG 20010904//EN"
 "http://www.w3.org/TR/2001/REC-SVG-20010904/DTD/svg10.dtd">
<svg version="1.0" xmlns="http://www.w3.org/2000/svg"
 width="700.000000pt" height="700.000000pt" viewBox="0 0 700.000000 700.000000"
 preserveAspectRatio="xMidYMid meet">
<metadata>
Created by potrace 1.14, written by Peter Selinger 2001-2017
</metadata>
<g transform="translate(0.000000,700.000000) scale(0.100000,-0.100000)"
fill="#000000" stroke="none">
<path d="M1022 5663 c-22 -9 -38 -26 -48 -50 -15 -34 -13 -47 21 -217 20 -99
38 -192 40 -206 3 -14 6 -34 9 -45 19 -88 176 -881 176 -892 0 -10 -21 -13
-82 -13 -56 -1 -89 -5 -102 -15 -18 -14 -31 -63 -42 -155 -3 -25 -7 -52 -9
-60 -2 -8 -7 -42 -10 -75 -4 -33 -8 -67 -10 -75 -2 -8 -7 -37 -10 -65 -3 -27
-8 -61 -10 -75 -3 -14 -7 -43 -10 -65 -3 -22 -8 -56 -11 -75 -3 -19 -8 -48
-10 -65 -2 -16 -11 -81 -20 -144 -38 -267 -18 -468 66 -647 60 -130 174 -266
283 -341 23 -15 44 -30 47 -33 7 -7 109 -57 145 -71 103 -40 190 -54 320 -54
118 1 180 10 273 41 213 71 402 236 505 441 l27 52 640 0 641 0 -4 -41 c-2
-22 2 -71 9 -108 54 -286 346 -457 618 -361 189 66 320 257 313 454 l-2 57
115 -1 c113 -1 115 -1 138 27 28 33 36 -16 -72 464 -47 212 -86 390 -86 396 0
16 119 54 168 54 31 0 44 -5 49 -17 4 -9 31 -60 61 -112 59 -104 61 -108 212
-381 168 -303 174 -315 281 -506 l79 -140 0 -141 c0 -202 -49 -183 474 -183
469 0 466 0 466 64 0 29 -21 69 -159 296 -5 8 -64 106 -130 216 -66 111 -128
207 -137 215 -9 7 -114 46 -233 85 -202 67 -218 71 -243 58 -35 -18 -38 -30
-41 -192 l-2 -132 -260 467 c-143 257 -263 474 -267 483 -3 10 -18 26 -32 37
-23 18 -41 21 -153 21 -71 0 -140 1 -154 1 -25 1 -27 6 -49 112 -13 61 -31
121 -41 133 l-17 21 -571 0 -571 0 -15 -22 c-16 -22 -16 -22 -70 35 l-55 57
23 20 c45 41 87 96 87 114 0 26 -44 70 -66 66 -11 -2 -23 -4 -28 -4 -16 -2
-297 -285 -307 -308 -18 -47 27 -101 74 -89 12 3 38 21 57 41 64 65 61 65 156
-31 82 -83 85 -87 80 -122 -4 -21 -9 -54 -12 -76 -3 -21 -7 -48 -10 -59 -2
-12 -6 -39 -9 -62 -3 -22 -8 -47 -10 -55 -2 -8 -7 -33 -10 -55 -3 -22 -14 -87
-23 -145 l-19 -105 -289 -2 -289 -3 -191 334 -191 334 123 4 c109 3 125 5 138
23 22 29 19 63 -7 89 -22 22 -29 23 -180 22 l-156 -1 -16 36 c-34 74 -57 93
-121 99 l-58 5 -62 250 c-50 198 -67 253 -85 267 -29 24 -53 23 -86 -6 l-28
-24 61 -246 61 -246 -311 2 -311 3 -62 305 c-34 168 -64 319 -66 335 -3 17
-24 122 -47 235 -23 113 -44 216 -46 230 -3 14 -7 32 -9 40 -3 8 -7 33 -11 55
-3 22 -7 42 -9 45 -2 3 -6 26 -10 50 -17 113 -78 159 -163 123z m1231 -1563
c2 -3 36 -61 74 -130 39 -69 79 -139 90 -157 10 -18 65 -114 122 -215 57 -101
112 -196 121 -213 10 -16 31 -54 49 -83 17 -29 31 -57 31 -62 0 -5 15 -24 33
-43 l32 -34 362 1 c324 1 364 3 379 18 15 14 26 64 48 203 4 22 9 51 11 65 2
14 16 95 30 180 14 85 28 166 30 179 2 13 8 45 12 70 4 25 8 49 9 54 1 4 2 14
3 22 1 13 62 15 485 15 l484 0 14 -62 c8 -35 11 -65 7 -68 -4 -3 -180 -4 -391
-3 -234 1 -393 -2 -409 -8 -58 -22 -52 -111 8 -123 15 -3 178 -5 362 -5 183 0
335 -2 338 -4 2 -2 -25 -14 -59 -27 -35 -12 -90 -32 -123 -45 -33 -13 -141
-53 -240 -90 -281 -104 -289 -107 -312 -131 -23 -25 -22 -56 5 -86 25 -29 68
-22 197 33 11 4 126 47 255 94 241 89 264 97 362 136 32 12 60 20 64 17 3 -4
35 -136 70 -295 80 -360 74 -331 81 -374 l5 -36 -78 1 -78 2 -32 50 c-131 206
-400 275 -620 160 -59 -30 -141 -108 -179 -169 l-27 -42 -639 0 c-567 0 -638
1 -634 15 8 26 18 113 20 174 1 53 -1 80 -19 191 -24 145 -112 309 -235 435
-177 182 -411 271 -671 257 -219 -12 -405 -94 -562 -247 l-67 -66 5 36 c4 35
32 224 40 270 2 14 7 50 10 80 3 30 7 57 9 60 4 7 1112 7 1118 0z m-358 -279
c234 -43 449 -221 541 -449 57 -142 67 -332 25 -479 -101 -353 -444 -576 -813
-529 -208 26 -417 163 -527 346 -107 176 -135 361 -87 575 19 89 100 234 173
311 182 193 424 272 688 225z m2548 -824 c72 -33 127 -84 160 -149 33 -64 38
-85 39 -158 1 -114 -58 -218 -162 -285 -169 -108 -415 -23 -486 168 -29 78
-25 189 9 259 45 91 124 157 227 188 49 15 155 4 213 -23z m1573 -47 l132 -44
158 -265 c88 -146 160 -270 162 -275 3 -13 -593 -15 -605 -3 -7 8 -12 602 -5
625 3 7 10 11 16 9 6 -2 70 -24 142 -47z"/>
<path d="M1695 3483 c-143 -26 -256 -116 -307 -243 -18 -43 -22 -75 -22 -150
0 -87 3 -100 33 -160 38 -76 58 -99 126 -150 194 -144 471 -69 582 158 25 51
28 68 27 157 0 92 -2 105 -31 165 -52 105 -140 182 -243 210 -46 13 -130 19
-165 13z m160 -157 c56 -25 110 -81 132 -135 9 -20 15 -63 15 -97 -2 -266
-358 -348 -479 -110 -30 59 -35 148 -10 207 38 92 137 159 237 159 37 0 72 -8
105 -24z"/>
<path d="M4272 2889 c-97 -18 -164 -100 -164 -200 2 -167 210 -260 330 -148
151 141 35 383 -166 348z m75 -144 c29 -20 34 -60 12 -89 -27 -35 -67 -39 -96
-10 -28 29 -29 53 -2 88 23 29 54 33 86 11z"/>
</g>
</svg>
