<?xml version="1.0" standalone="no"?>
<!DOCTYPE svg PUBLIC "-//W3C//DTD SVG 20010904//EN"
 "http://www.w3.org/TR/2001/REC-SVG-20010904/DTD/svg10.dtd">
<svg version="1.0" xmlns="http://www.w3.org/2000/svg"
 width="700.000000pt" height="700.000000pt" viewBox="0 0 700.000000 700.000000"
 preserveAspectRatio="xMidYMid meet">
<metadata>
Created by potrace 1.14, written by Peter Selinger 2001-2017
</metadata>
<g transform="translate(0.000000,700.000000) scale(0.100000,-0.100000)"
fill="#000000" stroke="none">
<path d="M343 5861 c-18 -11 -39 -34 -48 -51 -19 -36 -17 -59 21 -243 13 -67
27 -133 29 -147 3 -14 54 -272 115 -575 61 -302 113 -566 116 -585 3 -19 7
-39 7 -44 1 -6 -38 -11 -88 -11 -49 -1 -100 -5 -113 -9 -26 -9 -42 -36 -48
-80 -3 -17 -9 -60 -14 -96 -6 -36 -12 -83 -15 -105 -7 -59 -13 -98 -31 -220
-9 -60 -17 -119 -19 -130 -3 -22 -15 -106 -21 -145 -2 -14 -6 -45 -9 -70 -3
-25 -7 -56 -10 -70 -31 -159 -45 -477 -24 -568 4 -20 10 -51 13 -69 10 -56 65
-199 100 -261 56 -100 96 -153 176 -233 191 -192 443 -298 715 -298 220 0 405
57 590 182 125 84 280 268 335 395 l21 48 747 0 747 -1 1 -75 c2 -153 57 -284
164 -390 65 -65 158 -120 238 -143 20 -5 89 -10 152 -11 102 0 123 3 183 27
221 87 362 292 359 522 l-1 70 135 1 c145 1 165 8 178 59 3 13 -40 228 -100
495 -57 261 -103 479 -100 486 7 18 146 61 194 59 43 -1 45 -3 76 -61 18 -32
113 -203 211 -379 98 -176 190 -342 205 -370 16 -27 90 -160 165 -295 l137
-245 2 -160 c1 -88 6 -167 10 -176 17 -38 36 -40 553 -37 489 3 503 4 517 23
30 39 19 73 -75 229 -51 83 -97 160 -103 171 -65 116 -284 474 -300 490 -12
11 -41 26 -66 34 -25 7 -54 17 -65 22 -45 18 -389 129 -402 129 -8 0 -27 -13
-42 -28 l-28 -28 1 -171 c1 -95 -2 -169 -6 -165 -4 4 -18 27 -31 52 -14 25
-68 124 -122 220 -54 96 -108 194 -121 217 -13 24 -43 78 -67 120 -24 43 -55
98 -69 123 -158 290 -236 424 -253 432 -11 7 -92 11 -197 12 l-178 0 -10 36
c-5 19 -11 46 -14 60 -19 105 -41 176 -61 196 l-22 22 -644 0 c-363 0 -655 -5
-668 -10 -13 -5 -30 -16 -36 -25 -11 -14 -20 -9 -74 46 -33 34 -61 63 -61 65
0 2 22 26 50 55 55 57 70 80 70 111 0 32 -44 70 -81 70 -28 0 -54 -22 -211
-178 -157 -157 -178 -182 -178 -211 0 -41 38 -81 79 -81 21 0 42 13 78 48 28
26 57 53 65 59 13 11 31 -3 117 -90 111 -111 105 -97 87 -197 -8 -42 -75 -442
-82 -485 -3 -22 -9 -58 -13 -80 l-7 -40 -336 0 -336 0 -173 303 c-96 167 -181
316 -189 331 -8 14 -30 52 -48 83 -17 32 -32 60 -32 63 0 3 60 5 133 5 120 0
136 2 157 20 34 30 33 85 -2 115 -25 22 -34 23 -205 23 l-178 0 -39 67 c-44
76 -71 93 -145 89 l-48 -2 -13 52 c-8 28 -15 56 -16 61 -1 6 -28 115 -60 243
-37 148 -64 239 -76 252 -22 23 -74 26 -101 6 -39 -30 -36 -59 34 -335 37
-146 65 -268 62 -271 -2 -3 -166 -5 -362 -5 l-358 0 -17 90 c-10 49 -20 101
-22 115 -3 14 -44 216 -91 450 -47 234 -87 436 -89 450 -20 109 -97 477 -104
494 -24 64 -118 94 -177 57z m1508 -1934 c38 -65 80 -137 93 -160 12 -23 69
-123 126 -222 56 -99 111 -196 122 -215 118 -208 203 -352 218 -365 15 -13 68
-16 433 -16 425 -1 446 1 466 39 5 9 42 216 82 459 l74 443 561 0 c526 0 562
-1 569 -17 3 -10 12 -45 19 -79 l13 -60 -456 0 c-251 0 -468 -4 -483 -7 -16
-4 -34 -20 -43 -38 -15 -28 -15 -33 2 -67 11 -22 27 -38 43 -42 14 -3 208 -6
432 -5 224 0 406 0 405 -1 -3 -3 -781 -295 -792 -298 -39 -8 -85 -41 -94 -68
-11 -30 4 -78 29 -93 28 -17 99 5 525 165 253 95 467 175 476 177 12 4 18 -5
24 -34 5 -21 9 -42 11 -48 6 -27 86 -383 90 -403 3 -13 18 -83 35 -155 16 -73
32 -143 35 -157 l6 -26 -98 1 c-68 0 -99 4 -102 13 -2 7 -20 36 -39 64 -168
244 -510 308 -755 141 -61 -41 -131 -116 -168 -177 l-25 -42 -740 2 c-407 0
-744 2 -748 3 -5 0 -6 5 -3 9 24 39 31 308 10 407 -92 442 -422 758 -862 825
-78 12 -239 9 -322 -5 -193 -34 -388 -136 -537 -282 l-75 -74 7 48 c4 26 9 62
11 78 3 25 12 87 29 205 2 14 6 43 9 65 12 81 18 120 22 127 2 3 295 5 650 5
l646 -2 69 -118z m-434 -222 c319 -79 572 -352 633 -685 80 -430 -204 -876
-625 -984 -96 -24 -114 -26 -226 -27 -345 -2 -649 198 -790 521 -127 289 -79
639 119 880 148 180 353 293 577 316 33 4 61 7 62 8 8 6 194 -16 250 -29z
m2903 -941 c161 -60 262 -216 253 -388 -16 -328 -415 -488 -655 -264 -222 208
-132 583 160 663 80 22 162 18 242 -11z m1853 -64 l158 -53 185 -309 c101
-169 187 -314 189 -321 4 -9 -70 -12 -347 -11 -194 1 -356 2 -360 3 -5 1 -8
170 -8 377 0 297 3 375 13 371 6 -2 83 -28 170 -57z"/>
<path d="M1147 3324 c-1 -2 -16 -5 -33 -8 -213 -38 -378 -246 -368 -466 13
-289 288 -492 567 -420 111 29 196 89 262 184 121 177 101 416 -49 569 -61 63
-120 99 -197 122 -49 14 -174 27 -182 19z m182 -188 c108 -54 164 -145 165
-266 0 -60 -5 -85 -24 -125 -30 -62 -86 -118 -148 -147 -68 -32 -179 -32 -247
2 -107 52 -169 148 -169 265 0 77 13 119 56 181 30 42 98 91 152 109 57 20
156 11 215 -19z"/>
<path d="M4140 2628 c-98 -17 -179 -107 -187 -209 -9 -99 28 -168 120 -226 35
-22 54 -27 107 -27 136 1 231 92 236 227 6 145 -130 261 -276 235z m71 -158
c20 0 49 -42 49 -70 0 -39 -39 -80 -75 -80 -40 0 -84 49 -78 86 3 16 11 35 16
43 15 17 49 31 65 25 8 -2 18 -4 23 -4z"/>
</g>
</svg>
